<?xml version="1.0" standalone="no"?>
<!DOCTYPE svg PUBLIC "-//W3C//DTD SVG 20010904//EN"
 "http://www.w3.org/TR/2001/REC-SVG-20010904/DTD/svg10.dtd">
<svg version="1.0" xmlns="http://www.w3.org/2000/svg"
 width="450.000000pt" height="450.000000pt" viewBox="0 0 450.000000 450.000000"
 preserveAspectRatio="xMidYMid meet">
<metadata>
Created by potrace 1.11, written by Peter Selinger 2001-2013
</metadata>
<g transform="translate(0.000000,450.000000) scale(0.100000,-0.100000)"
fill="#000000" stroke="none">
<path d="M1755 3979 c-55 -5 -118 -13 -140 -17 l-40 -8 -3 -100 c-1 -56 1
-134 6 -174 8 -68 7 -72 -12 -80 -12 -5 -111 -44 -221 -86 -287 -110 -696
-287 -708 -305 -17 -27 21 -104 134 -274 58 -88 123 -197 143 -243 l36 -83 0
-207 c0 -218 -11 -295 -49 -371 -20 -38 -152 -165 -341 -326 -158 -135 -329
-311 -387 -397 -122 -184 -164 -410 -104 -569 21 -54 85 -144 135 -190 46 -42
155 -97 227 -114 138 -32 328 -11 447 49 l51 26 23 -33 c53 -75 115 -102 220
-95 79 5 118 21 173 70 36 31 36 31 71 15 47 -23 138 -22 191 3 24 10 65 39
91 64 41 39 55 46 89 46 89 0 161 97 171 229 4 57 1 77 -17 114 -27 56 -85 98
-146 105 -43 4 -47 8 -91 73 -25 37 -71 89 -102 114 -71 58 -210 126 -327 161
-84 26 -103 28 -275 28 -102 1 -197 -2 -212 -7 -28 -7 -42 -34 -32 -60 8 -23
25 -26 80 -15 121 23 329 6 464 -39 149 -49 298 -160 354 -263 28 -52 28 -58
-5 -72 -4 -2 -9 -13 -13 -24 -5 -17 3 -33 34 -69 35 -41 40 -52 40 -97 0 -32
-8 -68 -21 -95 -46 -94 -176 -161 -234 -120 -17 13 -17 16 -1 62 18 54 21 140
6 179 -14 38 -46 51 -76 31 -25 -16 -33 -58 -14 -70 15 -9 12 -65 -6 -117 -53
-157 -246 -222 -333 -112 -19 25 -21 35 -15 93 5 59 4 68 -16 86 -28 25 -53
10 -61 -36 -8 -52 -15 -58 -103 -99 -103 -48 -161 -61 -255 -61 -140 1 -258
48 -348 141 -95 97 -129 214 -100 350 47 229 136 344 532 690 307 268 308 269
336 370 23 80 24 101 24 351 l0 266 -40 79 c-22 43 -43 81 -47 82 -5 2 -8 8
-8 13 0 6 -45 77 -100 160 -55 82 -100 154 -100 158 0 15 502 226 764 322 87
32 163 62 169 68 6 6 5 49 -3 123 -6 62 -10 136 -8 163 l3 50 45 7 c97 15 357
21 472 9 124 -12 337 -46 346 -56 2 -1 -14 -9 -35 -15 -81 -26 -178 -86 -243
-150 -76 -75 -124 -154 -155 -254 -12 -39 -26 -70 -31 -69 -5 2 -36 13 -69 25
-51 19 -79 23 -195 22 -119 0 -143 -3 -200 -25 -185 -70 -336 -241 -381 -429
-7 -30 -12 -95 -12 -145 4 -366 331 -632 706 -575 43 6 104 20 134 31 31 10
59 19 63 19 4 0 10 -31 14 -69 8 -95 50 -250 86 -322 99 -194 326 -253 448
-115 36 42 46 109 16 120 -29 11 -43 6 -58 -21 l-14 -28 -20 45 c-30 71 -34
102 -21 176 11 66 15 72 75 131 35 35 64 70 64 79 0 34 -20 54 -54 54 -39 0
-40 1 -56 102 -9 57 -10 84 -1 109 6 17 11 47 11 65 l0 34 118 0 c292 0 504
127 582 347 l27 77 25 -49 c45 -88 99 -245 138 -400 61 -238 91 -478 108 -866
5 -96 12 -181 16 -187 4 -7 20 -12 37 -12 33 0 31 -8 29 138 -1 56 2 102 7
102 13 0 214 -129 304 -195 171 -125 318 -297 370 -433 11 -31 28 -91 36 -133
14 -70 14 -83 -1 -150 -36 -162 -172 -286 -355 -325 -123 -26 -241 -10 -368
50 -72 35 -76 39 -85 100 -4 28 -34 44 -56 30 -14 -9 -17 -26 -17 -97 0 -95
-12 -118 -72 -143 -83 -35 -181 -3 -244 80 -51 67 -78 173 -49 191 18 11 10
44 -15 61 -29 19 -55 12 -62 -16 -3 -11 -9 -20 -14 -20 -17 0 -9 -119 11 -172
11 -29 20 -54 20 -56 0 -2 -15 -9 -34 -17 -72 -30 -188 34 -232 129 -13 28
-24 66 -24 84 0 43 23 98 49 114 29 18 29 74 1 83 -26 8 -42 -2 -79 -49 -41
-51 -55 -106 -47 -183 6 -58 5 -61 -14 -56 -31 8 -71 84 -77 147 -6 53 -4 57
30 91 20 20 46 36 61 36 14 1 31 3 36 4 6 1 14 3 19 4 5 0 21 26 36 57 49 101
171 201 314 259 136 56 365 80 505 54 65 -12 86 -3 86 37 0 38 -33 47 -190 52
-166 5 -266 -10 -408 -59 -162 -57 -290 -150 -358 -259 -29 -47 -42 -59 -68
-64 -43 -8 -96 -48 -123 -94 -56 -91 -3 -290 89 -338 18 -9 51 -18 74 -18 34
-2 51 -10 84 -40 24 -21 63 -47 88 -58 59 -27 154 -28 204 -4 l36 17 49 -34
c64 -45 102 -57 185 -57 97 0 163 39 213 124 9 16 13 16 57 -4 79 -35 196 -60
278 -60 235 0 436 126 533 335 25 54 27 223 3 315 -52 201 -192 384 -429 559
-89 65 -299 206 -344 229 -18 10 -22 23 -27 89 -16 207 -39 392 -67 528 -47
235 -150 522 -238 666 -17 27 -35 75 -41 111 -36 196 -172 387 -339 476 -181
97 -396 163 -641 197 -142 19 -441 27 -575 14z m1014 -233 c19 -4 42 -11 51
-16 10 -5 20 -6 24 -3 3 3 6 1 6 -5 0 -7 3 -11 8 -10 11 4 72 -26 72 -34 0 -5
7 -8 15 -8 8 0 15 -4 15 -10 0 -5 6 -10 13 -10 13 0 69 -51 107 -99 14 -17 33
-41 43 -53 9 -11 17 -26 17 -31 0 -6 6 -18 13 -26 7 -9 20 -36 27 -61 7 -25
16 -49 19 -55 3 -5 6 -21 7 -35 0 -14 3 -30 6 -35 3 -6 4 -50 3 -100 -3 -92
-23 -175 -53 -207 -8 -10 -12 -18 -8 -18 16 0 -99 -102 -138 -123 -23 -11 -44
-22 -48 -23 -5 -1 -9 -2 -10 -4 -4 -2 -39 -11 -58 -14 -9 -1 -20 -4 -25 -7
-14 -8 -77 -12 -180 -12 -101 0 -215 25 -240 53 -16 17 -18 26 -29 95 -4 21
-15 58 -26 83 -11 24 -20 50 -20 57 0 7 -7 15 -15 19 -8 3 -14 9 -13 13 3 12
-24 63 -34 63 -4 0 -8 5 -8 11 0 15 -26 39 -34 32 -3 -4 -6 1 -6 9 0 9 -24 39
-53 68 l-54 53 9 50 c5 27 20 74 34 105 13 30 22 57 20 59 -7 7 28 40 37 36 4
-2 7 2 7 10 0 34 101 112 187 145 26 11 57 22 68 27 11 4 35 9 54 11 19 2 36
5 37 7 6 5 114 0 153 -7z m-879 -441 c14 -3 32 -8 40 -10 8 -2 16 -4 18 -5 1
-2 5 -3 10 -4 21 -4 125 -57 138 -71 9 -8 20 -12 26 -9 6 4 8 3 5 -2 -3 -6 15
-30 41 -54 25 -25 42 -38 38 -30 -6 9 -6 12 0 7 5 -5 9 -16 9 -25 0 -9 6 -16
13 -14 8 1 11 -2 8 -7 -4 -5 5 -22 19 -37 26 -28 32 -40 16 -30 -5 4 -1 -11 9
-31 10 -21 16 -41 13 -45 -2 -5 0 -8 5 -8 10 0 10 0 18 -90 10 -109 10 -125 1
-137 -5 -7 -10 -30 -10 -51 -2 -30 -5 -38 -17 -34 -13 5 -13 4 0 -13 9 -12 10
-16 2 -11 -8 5 -16 -2 -23 -23 -6 -18 -16 -28 -22 -24 -6 3 -7 1 -3 -5 8 -13
-94 -122 -113 -122 -6 0 -11 -3 -11 -7 0 -11 -58 -43 -76 -43 -8 0 -14 -4 -14
-8 0 -7 -55 -24 -130 -39 -30 -6 -170 -9 -170 -4 0 4 -10 7 -23 8 -31 3 -50 8
-62 14 -5 4 -20 5 -32 4 -12 -1 -24 4 -27 12 -3 7 -12 13 -21 13 -8 0 -15 5
-15 11 0 5 -4 8 -9 4 -10 -5 -59 33 -113 86 -14 15 -30 24 -34 21 -4 -4 -4 -2
-1 4 4 6 -4 23 -18 38 -13 14 -19 26 -12 26 9 0 9 2 -1 8 -16 11 -52 106 -58
157 -12 90 -6 182 15 237 5 14 7 29 4 32 -4 3 -1 6 7 6 10 0 10 4 -1 17 -9 10
-9 14 -2 10 14 -9 47 48 38 64 -4 5 -1 8 6 7 6 -2 14 3 17 11 3 8 0 11 -7 7
-17 -11 -13 0 6 15 11 10 14 10 9 2 -4 -7 -3 -13 2 -13 11 0 26 28 26 50 1 8
6 15 11 15 21 1 55 27 49 37 -4 6 -3 8 3 5 5 -3 26 5 46 19 20 14 37 21 37 17
0 -4 4 -2 8 5 8 11 27 18 72 27 8 1 22 5 30 8 37 14 155 15 210 2z m564 -644
c3 -5 0 -11 -8 -14 -15 -6 -26 1 -26 15 0 11 27 10 34 -1z m-24 -35 c0 -3 -4
-8 -10 -11 -5 -3 -10 -1 -10 4 0 6 5 11 10 11 6 0 10 -2 10 -4z m9 -123 c25
-24 42 -43 37 -43 -5 0 -4 -6 1 -12 5 -7 9 -25 8 -40 0 -16 2 -28 5 -28 3 0 6
-17 7 -38 l1 -38 -81 1 c-45 1 -92 5 -104 9 -16 5 -23 3 -23 -6 0 -8 -4 -6
-11 5 -5 9 -19 17 -29 17 -35 0 -30 17 18 66 65 66 103 119 94 129 -4 5 -1 5
6 1 8 -5 12 1 13 21 0 16 3 22 6 13 4 -8 27 -34 52 -57z m-32 -547 c3 -3 13 0
21 7 10 7 13 8 9 1 -4 -7 2 -23 13 -36 11 -14 16 -28 13 -32 -3 -3 -1 -6 6 -6
7 0 10 -4 6 -10 -3 -5 3 -18 15 -30 11 -11 16 -20 10 -20 -5 0 -10 -6 -10 -14
0 -10 -10 -13 -32 -11 -44 5 -88 22 -88 35 0 6 -4 9 -9 5 -13 -7 -51 48 -51
73 0 37 71 64 97 38z m-657 -1039 c0 13 37 11 66 -5 36 -19 47 -40 45 -90 -3
-70 -4 -72 -13 -72 -4 0 -8 -5 -8 -10 0 -6 -9 -20 -19 -32 -20 -21 -20 -20
-17 33 2 30 -1 60 -7 67 -5 6 -6 12 -2 12 4 0 0 11 -9 25 -9 13 -16 31 -16 40
0 8 -5 15 -12 15 -14 0 -48 30 -48 43 0 5 9 -1 20 -14 10 -13 19 -19 20 -12z"/>
<path d="M2565 3146 c-57 -57 -63 -88 -23 -130 71 -75 198 8 158 104 -8 19
-18 29 -26 26 -8 -3 -14 1 -14 8 0 21 -72 16 -95 -8z"/>
<path d="M1905 2835 c-71 -30 -96 -106 -49 -150 14 -13 30 -22 35 -20 4 3 10
1 14 -4 18 -30 111 32 120 79 5 25 -33 102 -46 94 -5 -3 -17 -1 -26 5 -12 6
-28 5 -48 -4z"/>
</g>
</svg>
