<?xml version="1.0" standalone="no"?>
<!DOCTYPE svg PUBLIC "-//W3C//DTD SVG 20010904//EN"
 "http://www.w3.org/TR/2001/REC-SVG-20010904/DTD/svg10.dtd">
<svg version="1.0" xmlns="http://www.w3.org/2000/svg"
 width="700.000000pt" height="700.000000pt" viewBox="0 0 700.000000 700.000000"
 preserveAspectRatio="xMidYMid meet">
<metadata>
Created by potrace 1.11, written by Peter Selinger 2001-2013
</metadata>
<g transform="translate(0.000000,700.000000) scale(0.100000,-0.100000)"
fill="#000000" stroke="none">
<path d="M3340 5863 c-205 -30 -390 -107 -550 -229 -69 -53 -166 -147 -205
-199 -16 -22 -33 -42 -36 -45 -4 -3 -22 -30 -41 -60 -103 -161 -165 -341 -184
-532 -2 -24 -5 -271 -5 -550 l-1 -508 -26 -1 c-32 -1 -42 -3 -102 -19 -148
-40 -265 -153 -321 -310 l-23 -65 1 -910 c0 -899 0 -911 21 -973 40 -118 130
-225 236 -279 106 -54 82 -53 1411 -52 1148 0 1234 2 1296 18 190 51 324 208
345 403 4 35 7 443 7 908 0 745 -2 852 -16 907 -23 87 -57 149 -113 209 -68
71 -127 108 -215 135 l-74 23 -970 1 c-533 1 -973 3 -977 4 -3 0 -6 227 -5
504 0 369 4 520 13 567 59 291 275 511 560 569 359 73 713 -138 823 -490 27
-87 34 -151 33 -306 l-1 -133 29 -1 c17 0 100 0 185 0 85 0 179 0 208 0 l54 1
-3 173 c-3 192 -6 226 -34 344 -107 452 -475 802 -933 888 -115 21 -270 25
-387 8z m312 -3108 c183 -90 256 -312 161 -487 -101 -186 -338 -244 -513 -124
-60 40 -85 70 -119 141 -94 191 7 423 213 491 69 22 190 13 258 -21z"/>
</g>
</svg>
